<svg xmlns="http://www.w3.org/2000/svg" width="50" height="50" viewBox="0 0 50 50">
  <defs>
    <style>
      .cls-1 {
        fill: #599efc;
        fill-rule: evenodd;
      }
    </style>
  </defs>
  <path id="ic_advantages_for" class="cls-1" d="M492.868,49.829l-0.437-.509a6.811,6.811,0,0,1-1.3-4.85l0.124-.659a5.005,5.005,0,0,0-3.169-5.492l-0.634-.223a6.8,6.8,0,0,1-3.55-3.551l-0.223-.632a5.054,5.054,0,0,0-4.665-3.247,4.546,4.546,0,0,0-.825.076l-0.659.124a4.277,4.277,0,0,1-.774.066,6.9,6.9,0,0,1-4.077-1.366l-0.508-.436a5.007,5.007,0,0,0-6.342,0l-0.508.436a6.9,6.9,0,0,1-4.077,1.366,4.243,4.243,0,0,1-.774-0.066l-0.659-.124a4.535,4.535,0,0,0-.827-0.075,5.058,5.058,0,0,0-4.665,3.246l-0.221.632a6.8,6.8,0,0,1-3.551,3.551l-0.633.223a5,5,0,0,0-3.169,5.492l0.122,0.658a6.8,6.8,0,0,1-1.3,4.85l-0.436.509a5.007,5.007,0,0,0,0,6.342l0.437,0.508a6.8,6.8,0,0,1,1.3,4.851l-0.122.659a5,5,0,0,0,3.171,5.49l0.632,0.222a6.8,6.8,0,0,1,3.55,3.551l0.223,0.633a5.054,5.054,0,0,0,4.663,3.245,4.5,4.5,0,0,0,.827-0.076l0.659-.124a4.323,4.323,0,0,1,.774-0.064,6.9,6.9,0,0,1,4.076,1.364l0.509,0.437a5.006,5.006,0,0,0,6.342,0l0.508-.437a6.907,6.907,0,0,1,4.077-1.364,4.341,4.341,0,0,1,.774.064l0.657,0.125a4.67,4.67,0,0,0,.827.075,5.054,5.054,0,0,0,4.665-3.245l0.223-.633a6.8,6.8,0,0,1,3.55-3.551l0.634-.223a5,5,0,0,0,3.169-5.49l-0.124-.659a6.806,6.806,0,0,1,1.3-4.849l0.437-.51A5.007,5.007,0,0,0,492.868,49.829Zm-1.583,4.987-0.434.507a8.809,8.809,0,0,0-1.767,6.59l0.123,0.657a2.919,2.919,0,0,1-1.814,3.143l-0.632.223a8.815,8.815,0,0,0-4.825,4.825l-0.221.632a2.957,2.957,0,0,1-2.7,1.856,2.488,2.488,0,0,1-.442-0.04l-0.659-.125a6.324,6.324,0,0,0-1.157-.1,8.914,8.914,0,0,0-5.432,1.868l-0.51.436a2.931,2.931,0,0,1-3.628,0l-0.51-.436a8.918,8.918,0,0,0-5.432-1.868,6.342,6.342,0,0,0-1.157.1l-0.659.124a2.346,2.346,0,0,1-.444.041,2.954,2.954,0,0,1-2.7-1.855l-0.223-.632a8.8,8.8,0,0,0-4.823-4.825l-0.632-.223a2.917,2.917,0,0,1-1.814-3.144l0.123-.657a8.812,8.812,0,0,0-1.767-6.59l-0.434-.507a2.92,2.92,0,0,1,0-3.631l0.434-.509a8.8,8.8,0,0,0,1.766-6.589l-0.122-.659a2.917,2.917,0,0,1,1.814-3.143l0.632-.223a8.806,8.806,0,0,0,4.823-4.824l0.223-.632a2.954,2.954,0,0,1,2.7-1.855,2.422,2.422,0,0,1,.444.04l0.659,0.123a6.287,6.287,0,0,0,1.157.1,8.925,8.925,0,0,0,5.432-1.867l0.51-.437a2.927,2.927,0,0,1,3.628,0l0.51,0.437a8.921,8.921,0,0,0,5.432,1.867,6.313,6.313,0,0,0,1.157-.1l0.659-.123a2.416,2.416,0,0,1,.442-0.04,2.953,2.953,0,0,1,2.7,1.855l0.221,0.632a8.816,8.816,0,0,0,4.825,4.824l0.632,0.223a2.917,2.917,0,0,1,1.814,3.143l-0.123.659a8.811,8.811,0,0,0,1.767,6.589l0.434,0.508A2.92,2.92,0,0,1,491.285,54.815ZM475.9,45.87l3.048,2.835L469.8,57.2l-3.047,2.835L463.718,57.2l-4.577-4.247,3.048-2.834,4.566,4.247Z" transform="translate(-444 -28)"/>
</svg>
