<svg xmlns="http://www.w3.org/2000/svg" width="11" height="9" viewBox="0 0 11 9">
  <defs>
    <style>
      .cls-1 {
        fill: #fff;
        fill-rule: evenodd;
      }
    </style>
  </defs>
  <path id="ic_mail" class="cls-1" d="M172.154,120.555a0.062,0.062,0,0,1-.059.023H172.06A0.1,0.1,0,0,1,172,120.5v-4.688a0.085,0.085,0,0,1,.047-0.083,0.209,0.209,0,0,1,.093,0l3.107,1.787a0.075,0.075,0,0,1,.047.07,0.064,0.064,0,0,1-.035.07Zm10.442,1.292a0.106,0.106,0,0,1,.024.094,0.108,0.108,0,0,1-.094.059H172.364a0.332,0.332,0,0,1-.175-0.059,0.076,0.076,0,0,1-.047-0.071,0.08,0.08,0,0,1,.035-0.07l3.96-3.7a0.077,0.077,0,0,1,.1-0.012l1.051,0.6a0.431,0.431,0,0,0,.456,0l1.191-.705q0.07-.046.1,0.012Zm0.363-6.192a0.084,0.084,0,0,1,.046.082V120.7a0.084,0.084,0,0,1-.058.082,0.048,0.048,0,0,1-.035.011,0.1,0.1,0,0,1-.07-0.035l-2.955-3.207a0.067,0.067,0,0,1-.024-0.071,0.079,0.079,0,0,1,.035-0.07l2.967-1.751A0.072,0.072,0,0,1,182.959,115.655ZM182.631,113a0.36,0.36,0,0,1,.269.106,0.351,0.351,0,0,1,.1.258v1.128a0.072,0.072,0,0,1-.082.082,0.272,0.272,0,0,0-.128.059l-5.233,3.09a0.066,0.066,0,0,1-.047.012,0.063,0.063,0,0,1-.046-0.012l-5.4-3.09a0.127,0.127,0,0,1-.07-0.094v-1.175a0.351,0.351,0,0,1,.1-0.258,0.347,0.347,0,0,1,.257-0.106h10.267Z" transform="translate(-172 -113)"/>
</svg>
