<svg xmlns="http://www.w3.org/2000/svg" width="60" height="60" viewBox="0 0 60 60">
  <defs>
    <style>
      .cls-1 {
        fill-rule: evenodd;
        opacity: 0.1;
      }
    </style>
  </defs>
  <path id="ic_noava" class="cls-1" d="M563,28a30,30,0,1,0,30,30A29.983,29.983,0,0,0,563,28Zm0,56.327a26.133,26.133,0,0,1-17.243-6.431l9.159-9.186H577.95a1.836,1.836,0,0,0,1.836-1.837V49.128a1.836,1.836,0,0,0-1.836-1.837h-29.9a1.836,1.836,0,0,0-1.836,1.837V66.872a1.836,1.836,0,0,0,1.836,1.837h1.679L543.156,75.3a26.327,26.327,0,0,1,37.086-37.2l-5.5,5.513h5.188l2.909-2.918A26.327,26.327,0,0,1,563,84.326ZM556.566,58A6.434,6.434,0,1,1,563,64.454,6.451,6.451,0,0,1,556.566,58Z" transform="translate(-533 -28)"/>
</svg>
