<svg xmlns="http://www.w3.org/2000/svg" width="14" height="14" viewBox="0 0 14 14">
  <defs>
    <style>
      .cls-1 {
        fill-rule: evenodd;
      }
    </style>
  </defs>
  <path id="ic_return" class="cls-1" d="M353.065,112.71a6.949,6.949,0,0,1,2.7-1.723v2.168a4.978,4.978,0,0,0-1.319.966,5.3,5.3,0,0,0,0,7.343,4.971,4.971,0,0,0,7.149,0,5.3,5.3,0,0,0,0-7.343c0-.007-0.021-0.017-0.028-0.026h0l-1.168,1.2,0.007-3.8,3.7-.005-1.163,1.2a0.1,0.1,0,0,0,.027.031,7.328,7.328,0,0,1,0,10.165,6.871,6.871,0,0,1-9.9,0A7.329,7.329,0,0,1,353.065,112.71Z" transform="translate(-351.031 -111)"/>
</svg>
