<svg xmlns="http://www.w3.org/2000/svg" width="58" height="44" viewBox="0 0 58 44">
  <defs>
    <style>
      .cls-1 {
        fill: #599efc;
        fill-rule: evenodd;
      }
    </style>
  </defs>
  <path id="ic_advantages_two" class="cls-1" d="M240.25,31A22,22,0,1,0,262,53,21.9,21.9,0,0,0,240.25,31Zm0,41.556A19.557,19.557,0,1,1,259.583,53,19.468,19.468,0,0,1,240.25,72.555ZM206.417,53a19.686,19.686,0,0,1,4.608-12.653,1.232,1.232,0,0,0-.139-1.722,1.2,1.2,0,0,0-1.7.139,22.139,22.139,0,0,0,0,28.472,1.2,1.2,0,0,0,1.7.139,1.232,1.232,0,0,0,.139-1.722A19.686,19.686,0,0,1,206.417,53Zm7.25,0a19.686,19.686,0,0,1,4.608-12.653,1.232,1.232,0,0,0-.139-1.722,1.2,1.2,0,0,0-1.7.139,22.139,22.139,0,0,0,0,28.472,1.2,1.2,0,0,0,1.7.139,1.232,1.232,0,0,0,.139-1.722A19.686,19.686,0,0,1,213.667,53Zm28.88,0.6a2.371,2.371,0,0,0,.12-0.6,2.417,2.417,0,0,0-1.209-2.069V39.555a1.209,1.209,0,1,0-2.417,0V50.931a2.419,2.419,0,0,0,1.209,4.513,2.319,2.319,0,0,0,.589-0.12l5.806,5.873a1.2,1.2,0,0,0,1.709,0,1.232,1.232,0,0,0,0-1.728Z" transform="translate(-204 -31)"/>
</svg>
