<svg xmlns="http://www.w3.org/2000/svg" width="50" height="50" viewBox="0 0 50 50">
  <defs>
    <style>
      .cls-1 {
        fill: #599efc;
        fill-rule: evenodd;
      }
    </style>
  </defs>
  <path id="ic_advantages_three" class="cls-1" d="M367.667,55.527V39.458a1.011,1.011,0,0,0-.164-0.527l0.015-.009-6.25-10.417A1.042,1.042,0,0,0,360.375,28H333.292a1.04,1.04,0,0,0-.893.505l-6.251,10.417,0.016,0.009a1.011,1.011,0,0,0-.164.527V68.625a1.041,1.041,0,0,0,1.042,1.041h26.486A11.453,11.453,0,1,0,367.667,55.527Zm-7.882-25.444,5,8.334H352.9l-1.666-8.334h8.556Zm-15.223,0h4.544l1.684,8.334h-7.9ZM351,40.5v4.167h-8.336L342.649,40.5H351ZM333.882,30.083h8.558l-1.65,8.334H328.882Zm19.254,37.5H328.083V40.5h12.5v5.208a1.041,1.041,0,0,0,1.042,1.042h10.417a1.041,1.041,0,0,0,1.041-1.042L353.067,40.5h12.516V55.136c-0.343-.031-0.69-0.053-1.041-0.053a11.471,11.471,0,0,0-11.459,11.458C353.083,66.893,353.105,67.24,353.136,67.583Zm11.406,8.333a9.375,9.375,0,1,1,9.375-9.375A9.385,9.385,0,0,1,364.542,75.916Zm4.471-13.237-6.555,6.555-2.388-2.389a1.042,1.042,0,1,0-1.473,1.473l3.125,3.125a1.041,1.041,0,0,0,1.473,0l7.292-7.292A1.042,1.042,0,0,0,369.013,62.68Z" transform="translate(-326 -28)"/>
</svg>
