<svg xmlns="http://www.w3.org/2000/svg" width="42.969" height="50" viewBox="0 0 42.969 50">
  <defs>
    <style>
      .cls-1 {
        fill: #599efc;
        fill-rule: evenodd;
      }
    </style>
  </defs>
  <path id="ic_advantages_one" class="cls-1" d="M135.855,69.606L128.46,56.769a2.055,2.055,0,0,0,1.149-2.025l-0.55-4.543,3.148-3.259a2.015,2.015,0,0,0,.05-2.716l-3.148-3.358,0.65-4.592a2.046,2.046,0,0,0-1.6-2.172l-4.547-.889-2.2-4a1.975,1.975,0,0,0-2.548-.938h-0.05l-4.2,1.926-4.1-1.975a1.959,1.959,0,0,0-2.648.79l-2.249,4-4.547.79a2.029,2.029,0,0,0-1.649,2.222l0.55,4.543-3.148,3.259a2.016,2.016,0,0,0-.05,2.715l3.148,3.358L99.279,54.5a2.031,2.031,0,0,0,1.3,2.074L93.133,69.606a1,1,0,0,0,0,.988,1.033,1.033,0,0,0,.849.494h7.994l3.648,6.271a1.033,1.033,0,0,0,.849.494,0.97,0.97,0,0,0,.85-0.494l7.145-12.048,7.145,12.2a1.033,1.033,0,0,0,.85.494,0.968,0.968,0,0,0,.849-0.494l3.648-6.419h7.994a0.97,0.97,0,0,0,.85-0.494A0.809,0.809,0,0,0,135.855,69.606Zm-29.331,5.283-3.1-5.283a1.033,1.033,0,0,0-.85-0.494h-6.9l6.9-12.048,2.848,0.494,2.2,4a1.975,1.975,0,0,0,2.548.938h0.05l2.049-.938,1,1.728Zm2.9-14.171h-0.05l-2.2-4.1a1.865,1.865,0,0,0-1.4-.938l-4.6-.84,0.65-4.542a1.91,1.91,0,0,0-.5-1.63l-3.1-3.357,3.148-3.259a1.839,1.839,0,0,0,.549-1.629l-0.549-4.493a0.151,0.151,0,0,1,.05-0.1l4.547-.79a2.024,2.024,0,0,0,1.4-.988l2.248-4,4.1,1.975a1.93,1.93,0,0,0,1.8,0l4.148-1.876h0.05l2.2,4.1a1.87,1.87,0,0,0,1.349.938l4.547,0.889-0.649,4.542a1.909,1.909,0,0,0,.5,1.63l3.148,3.358-3.2,3.259a1.842,1.842,0,0,0-.549,1.629l0.549,4.542-4.5.741a2.023,2.023,0,0,0-1.4.988l-2.248,4-4.1-1.975a1.932,1.932,0,0,0-1.8,0Zm16.988,8.394a0.968,0.968,0,0,0-.849.494l-3.1,5.431L115.418,62.99a0.779,0.779,0,0,0-.2-0.345l-1.1-1.926,0.35-.148,4.1,1.975a2.072,2.072,0,0,0,2.649-.79l2.248-4,3-.543,6.846,11.9h-6.9Zm-1.949-23.7a9.994,9.994,0,1,0-9.993,9.875A9.964,9.964,0,0,0,124.462,45.412Zm-9.993,7.9a7.9,7.9,0,1,1,8-7.9A7.971,7.971,0,0,1,114.469,53.312Z" transform="translate(-93.031 -28)"/>
</svg>
