<svg xmlns="http://www.w3.org/2000/svg" width="14" height="15" viewBox="0 0 14 15">
  <defs>
    <style>
      .cls-1 {
        fill: #989898;
        fill-rule: evenodd;
      }
    </style>
  </defs>
  <path id="ic_trash" class="cls-1" d="M729.451,209.316h-3.138v-0.738a1.576,1.576,0,0,0-1.57-1.578h-3.486a1.576,1.576,0,0,0-1.57,1.578v0.738h-3.139a0.552,0.552,0,0,0,0,1.1h0.835v9.657A1.921,1.921,0,0,0,719.3,222h7.409a1.92,1.92,0,0,0,1.913-1.924v-7.892a0.549,0.549,0,1,0-1.1,0v7.892a0.819,0.819,0,0,1-.816.821h-7.412a0.819,0.819,0,0,1-.817-0.821v-9.657h10.971A0.552,0.552,0,0,0,729.451,209.316Zm-4.232,0h-4.435v-0.738a0.474,0.474,0,0,1,.473-0.475h3.489a0.474,0.474,0,0,1,.473.475v0.738ZM723,211.632a0.552,0.552,0,0,0-.549.552v6.948a0.549,0.549,0,1,0,1.1,0v-6.948A0.551,0.551,0,0,0,723,211.632Zm-2.3,0a0.551,0.551,0,0,0-.548.552v6.948a0.549,0.549,0,1,0,1.1,0v-6.948A0.552,0.552,0,0,0,720.7,211.632Zm4.608,0a0.552,0.552,0,0,0-.549.552v6.948a0.549,0.549,0,1,0,1.1,0v-6.948A0.551,0.551,0,0,0,725.3,211.632Z" transform="translate(-716 -207)"/>
</svg>
