<?xml version="1.0" encoding="utf-8"?>
<!-- Generator: Adobe Illustrator 19.2.1, SVG Export Plug-In . SVG Version: 6.00 Build 0)  -->
<svg version="1.1" id="Слой_1" xmlns="http://www.w3.org/2000/svg" xmlns:xlink="http://www.w3.org/1999/xlink" x="0px" y="0px"
	 viewBox="0 0 332 55" style="enable-background:new 0 0 332 55;" xml:space="preserve">
<style type="text/css">
	.st0{fill-rule:evenodd;clip-rule:evenodd;fill:url(#SVGID_1_);}
</style>
<g>
	<g>
		<path d="M123.2,42.1l-2.2,6.2h1.2l0.5-1.6h2.2l0.5,1.6h1.2l-2.2-6.2H123.2z M123,45.8l0.6-1.7c0.1-0.4,0.3-1,0.3-1h0
			c0,0,0.1,0.6,0.3,1l0.6,1.7H123z M132,45L132,45c0.5-0.3,0.8-0.8,0.8-1.4c0-1-0.8-1.6-2-1.6h-2.3v6.2h2.3c1.2,0,2.2-0.6,2.2-1.8
			C133,45.9,132.7,45.2,132,45z M129.7,43h1.1c0.5,0,0.8,0.3,0.8,0.8c0,0.4-0.3,0.8-0.8,0.8h-1.1V43z M130.9,47.3h-1.2v-1.8h1.2
			c0.6,0,0.9,0.4,0.9,0.9C131.9,46.9,131.5,47.3,130.9,47.3z M134.5,43h2.1v5.3h1.1V43h2.1v-1h-5.3V43z M144.4,41.9
			c-1.9,0-3.3,1.4-3.3,3.2c0,1.8,1.4,3.3,3.3,3.3c1.9,0,3.3-1.4,3.3-3.3C147.7,43.3,146.3,41.9,144.4,41.9z M144.4,47.4
			c-1.2,0-2.1-1-2.1-2.2c0-1.2,0.9-2.1,2.1-2.1c1.2,0,2.1,0.9,2.1,2.1C146.5,46.4,145.6,47.4,144.4,47.4z M152.4,42.1H150v6.2h1.2
			v-2.2h1.3c1.2,0,2-0.8,2-2.1C154.4,42.9,153.6,42.1,152.4,42.1z M152.2,45.2h-1.1V43h1.1c0.7,0,1,0.4,1,1.1
			C153.3,44.7,152.9,45.2,152.2,45.2z M158.2,45.6c-0.2,0.4-0.5,1-0.5,1h0c0,0,0.1-0.6,0.1-1v-3.6h-1.2v6.2h1.1l2.4-3.6
			c0.2-0.4,0.5-1,0.5-1h0c0,0-0.1,0.6-0.1,1v3.6h1.1v-6.2h-1.1L158.2,45.6z M167,45.1L167,45.1c0.4-0.2,0.9-0.7,0.9-1.4
			c0-1.1-0.9-1.7-1.9-1.7c-0.6,0-1.4,0.1-2,0.7l0.5,0.8c0.5-0.4,0.9-0.5,1.4-0.5c0.7,0,1,0.4,1,0.9c0,0.5-0.4,0.9-1,0.9h-0.6v0.9
			h0.8c0.6,0,1,0.3,1,0.9c0,0.6-0.4,1-1.1,1c-0.6,0-1.1-0.3-1.4-0.6l-0.6,0.8c0.5,0.6,1.4,0.9,2.2,0.9c1.2,0,2.2-0.7,2.2-1.9
			C168.1,45.8,167.7,45.3,167,45.1z M173.3,41.9c-1.9,0-3.3,1.4-3.3,3.2c0,1.8,1.4,3.3,3.3,3.3c1.9,0,3.3-1.4,3.3-3.3
			C176.5,43.3,175.1,41.9,173.3,41.9z M173.3,47.4c-1.2,0-2.1-1-2.1-2.2c0-1.2,0.9-2.1,2.1-2.1c1.2,0,2.1,0.9,2.1,2.1
			C175.4,46.4,174.4,47.4,173.3,47.4z M182.2,45L182.2,45c0.5-0.3,0.8-0.8,0.8-1.4c0-1-0.8-1.6-2-1.6h-2.3v6.2h2.3
			c1.2,0,2.2-0.6,2.2-1.8C183.3,45.9,182.9,45.2,182.2,45z M179.9,43h1.1c0.5,0,0.8,0.3,0.8,0.8c0,0.4-0.3,0.8-0.8,0.8h-1.1V43z
			 M181.2,47.3h-1.2v-1.8h1.2c0.6,0,0.9,0.4,0.9,0.9C182.1,46.9,181.8,47.3,181.2,47.3z M187,42.1l-2.2,6.2h1.2l0.5-1.6h2.2l0.5,1.6
			h1.2l-2.2-6.2H187z M186.8,45.8l0.6-1.7c0.1-0.4,0.3-1,0.3-1h0c0,0,0.1,0.6,0.3,1l0.6,1.7H186.8z M196.4,44.7h-2.9v-2.6h-1.2v6.2
			h1.2v-2.6h2.9v2.6h1.1v-6.2h-1.1V44.7z M204.2,44.7h-2.9v-2.6h-1.2v6.2h1.2v-2.6h2.9v2.6h1.1v-6.2h-1.1V44.7z M213.1,48.3h1.1
			v-6.2h-1.1V48.3z M210.3,44.2h-1.2v-2.2H208v6.2h2.4c1.2,0,2-0.8,2-2C212.3,45,211.5,44.2,210.3,44.2z M210.1,47.3h-1v-2.1h1
			c0.6,0,1,0.4,1,1.1C211.1,46.9,210.8,47.3,210.1,47.3z M219.5,41.8c0.8,0,1.5-0.4,1.5-1.2v-0.1h-0.9v0.1c0,0.4-0.3,0.6-0.6,0.6
			c-0.3,0-0.6-0.2-0.6-0.6v-0.1h-0.9v0.1C218.1,41.3,218.8,41.8,219.5,41.8z M218.5,45.6c-0.2,0.4-0.5,1-0.5,1h0c0,0,0.1-0.6,0.1-1
			v-3.6h-1.2v6.2h1.1l2.4-3.6c0.2-0.4,0.5-1,0.5-1h0c0,0-0.1,0.6-0.1,1v3.6h1.1v-6.2h-1.1L218.5,45.6z M231,47.4
			c-1.4,0-2.1-1.1-2.1-2.2c0-1.2,0.7-2.1,2.1-2.1c0.6,0,1.3,0.3,1.7,0.7l0.6-0.8c-0.6-0.6-1.5-0.9-2.3-0.9c-1.9,0-3.3,1.4-3.3,3.2
			c0,1.8,1.3,3.3,3.3,3.3c1.1,0,1.9-0.5,2.5-1l-0.6-0.8C232.3,47,231.6,47.4,231,47.4z M236.6,45.6h2.1v-1h-2.1V43h2.6v-1h-3.8v6.2
			h3.9v-1h-2.8V45.6z M244.1,42.1h-2.5v6.2h1.2v-2.2h1.3c1.2,0,2-0.8,2-2.1C246.1,42.9,245.3,42.1,244.1,42.1z M243.9,45.2h-1.1V43
			h1.1c0.7,0,1,0.4,1,1.1C245,44.7,244.6,45.2,243.9,45.2z M251.7,45L251.7,45c0.5-0.3,0.8-0.8,0.8-1.4c0-1-0.8-1.6-2-1.6h-2.3v6.2
			h2.3c1.2,0,2.2-0.6,2.2-1.8C252.7,45.9,252.4,45.2,251.7,45z M249.4,43h1.1c0.5,0,0.8,0.3,0.8,0.8c0,0.4-0.3,0.8-0.8,0.8h-1.1V43z
			 M250.6,47.3h-1.2v-1.8h1.2c0.6,0,0.9,0.4,0.9,0.9C251.5,46.9,251.2,47.3,250.6,47.3z M256.6,45.6c-0.2,0.4-0.5,1-0.5,1h0
			c0,0,0.1-0.6,0.1-1v-3.6h-1.2v6.2h1.1l2.4-3.6c0.2-0.4,0.5-1,0.5-1h0c0,0-0.1,0.6-0.1,1v3.6h1.1v-6.2H259L256.6,45.6z M265.7,47.4
			c-1.4,0-2.1-1.1-2.1-2.2c0-1.2,0.7-2.1,2.1-2.1c0.6,0,1.3,0.3,1.7,0.7l0.6-0.8c-0.6-0.6-1.5-0.9-2.3-0.9c-1.9,0-3.3,1.4-3.3,3.2
			c0,1.8,1.3,3.3,3.3,3.3c1.1,0,1.9-0.5,2.5-1l-0.6-0.8C267.1,47,266.4,47.4,265.7,47.4z M274.3,44.7h-2.9v-2.6h-1.2v6.2h1.2v-2.6
			h2.9v2.6h1.1v-6.2h-1.1V44.7z M280.4,44.2h-1.2v-2.2H278v6.2h2.4c1.2,0,2-0.8,2-2C282.4,45,281.5,44.2,280.4,44.2z M280.2,47.3h-1
			v-2.1h1c0.6,0,1,0.4,1,1.1C281.2,46.9,280.8,47.3,280.2,47.3z M283.2,48.3h1.1v-6.2h-1.1V48.3z M289.6,41.8c0.8,0,1.5-0.4,1.5-1.2
			v-0.1h-0.9v0.1c0,0.4-0.3,0.6-0.6,0.6c-0.3,0-0.6-0.2-0.6-0.6v-0.1h-0.9v0.1C288.1,41.3,288.8,41.8,289.6,41.8z M288.6,45.6
			c-0.2,0.4-0.5,1-0.5,1h0c0,0,0.1-0.6,0.1-1v-3.6H287v6.2h1.1l2.4-3.6c0.2-0.4,0.5-1,0.5-1h0c0,0-0.1,0.6-0.1,1v3.6h1.1v-6.2H291
			L288.6,45.6z M303.1,42.1H302v5.3h-2.7v-5.3h-1.2v6.2h4.8v1.2h1v-2.2h-0.8V42.1z M307.2,45.6h2.1v-1h-2.1V43h2.6v-1H306v6.2h3.9
			v-1h-2.8V45.6z M316.3,44.7h-2.9v-2.6h-1.2v6.2h1.2v-2.6h2.9v2.6h1.1v-6.2h-1.1V44.7z M319.4,43h2.1v5.3h1.1V43h2.1v-1h-5.3V43z
			 M329.1,42.1h-2.5v6.2h1.2v-2.2h1.3c1.2,0,2-0.8,2-2.1C331.1,42.9,330.3,42.1,329.1,42.1z M328.9,45.2h-1.1V43h1.1
			c0.7,0,1,0.4,1,1.1C330,44.7,329.6,45.2,328.9,45.2z"/>
	</g>
</g>
<g>
	<g>
		<path d="M141.5,6.7h-14c-1.1,0-1.4,0.3-1.4,1.4v7.4c0,8.5-2.2,10-4,10.9c-1,0.5-1.2,1-0.7,1.9l1.4,2.4c0.4,1,0.9,1.1,1.9,0.7
			c3.7-1.8,7-4.7,7-15.9v-3.6h5.7v17.9c0,1.1,0.3,1.4,1.4,1.4h2.8c1.1,0,1.4-0.3,1.4-1.4V8.1C142.9,7,142.6,6.7,141.5,6.7z
			 M154.8,12.7c-3.8,0-6.3,1.3-7.5,3.6c-0.5,1-0.2,1.4,0.7,1.8l1.9,0.8c0.9,0.4,1.2,0.2,1.8-0.5c0.6-0.8,1.5-1.3,2.9-1.3
			c1.9,0,2.7,0.9,2.7,2.5v0.8c-0.6,0-1.6-0.1-2.5-0.1c-5.7,0-8.1,1.3-8.1,5.6c0,3.7,1.6,5.7,8,5.7c3,0,5.3-0.3,6.6-0.9
			c1-0.4,1.3-0.8,1.3-2v-8.7C162.6,15.7,160.7,12.7,154.8,12.7z M157.3,27.2c0,0.2-0.1,0.2-0.2,0.2c-0.5,0.1-1.3,0.1-2.8,0.1
			c-2,0-2.3-0.7-2.3-1.7c0-0.9,0.4-1.6,2.4-1.6c0.9,0,2.3,0.1,2.9,0.1V27.2z M181.4,13.2h-2.7c-0.6,0-1,0.2-1.3,0.7l-4.4,6.7
			c-0.7,1.2-1.3,2.1-2,3.9h-0.1c0.6-2.1,0.9-3.5,0.9-5.6v-4.4c0-1-0.3-1.3-1.3-1.3h-2.7c-1,0-1.3,0.3-1.3,1.3v15.3
			c0,1,0.3,1.3,1.3,1.3h2.7c0.6,0,0.9-0.2,1.3-0.7l4.3-6.6c0.9-1.4,1.4-2.4,2-4h0.2c-0.5,1.8-0.9,3.2-0.9,5.6v4.4
			c0,1,0.3,1.3,1.3,1.3h2.7c0.9,0,1.3-0.3,1.3-1.3V14.5C182.7,13.5,182.4,13.2,181.4,13.2z M174.8,11.1c2.8,0,4.9-1.3,5.7-3.5
			c0.2-0.6,0.1-0.9-0.6-1.1l-2-0.7c-0.6-0.2-0.8-0.1-1.1,0.4c-0.4,0.9-1.1,1.4-2,1.4c-0.9,0-1.6-0.5-2-1.4c-0.3-0.5-0.6-0.6-1.3-0.4
			l-1.8,0.7c-0.6,0.2-0.8,0.5-0.6,1.1C170,9.8,172.1,11.1,174.8,11.1z M200.2,13.2h-13.3c-0.9,0-1.3,0.3-1.3,1.3v2.2
			c0,0.9,0.3,1.2,1.3,1.2h4v11.9c0,1,0.3,1.3,1.3,1.3h2.7c1,0,1.3-0.3,1.3-1.3V17.9h4c0.9,0,1.3-0.3,1.3-1.2v-2.2
			C201.5,13.5,201.1,13.2,200.2,13.2z M227.7,21.2c-0.9-1.7-1.9-2.9-3.2-3.6l7.2-9.6c0.6-0.7,0.3-1.4-0.7-1.4h-3
			c-1.7,0-2.1,0.2-2.8,1.2l-6.2,8.3h-0.9V8.1c0-1.1-0.4-1.4-1.4-1.4h-2.8c-1,0-1.4,0.3-1.4,1.4v21.6c0,1.1,0.4,1.4,1.4,1.4h2.8
			c1,0,1.4-0.3,1.4-1.4v-8.5h0.9c2,0,2.6,0.5,3.4,2.1l3.3,6.5c0.5,1.1,1.1,1.3,2.9,1.3h2.8c1.1,0,1.2-0.7,0.8-1.5L227.7,21.2z
			 M249.6,13.2h-11.5c-1,0-1.3,0.3-1.3,1.3v4.7c0,6.2-1.5,7-2.8,7.7c-0.7,0.3-0.9,0.8-0.5,1.4l1.3,2.4c0.4,0.7,0.8,1,1.6,0.7
			c2.5-1.2,5.4-3.1,5.4-11.7v-1.9h3.7v11.9c0,1,0.3,1.3,1.3,1.3h2.7c1,0,1.3-0.3,1.3-1.3V14.5C250.9,13.5,250.6,13.2,249.6,13.2z
			 M270,13.2h-2.7c-0.6,0-1,0.2-1.3,0.7l-4.4,6.7c-0.7,1.2-1.3,2.1-2,3.9h-0.1c0.6-2.1,0.9-3.5,0.9-5.6v-4.4c0-1-0.3-1.3-1.3-1.3
			h-2.7c-1,0-1.3,0.3-1.3,1.3v15.3c0,1,0.3,1.3,1.3,1.3h2.7c0.6,0,0.9-0.2,1.3-0.7l4.3-6.6c0.9-1.4,1.4-2.4,2-4h0.2
			c-0.5,1.8-0.9,3.2-0.9,5.6v4.4c0,1,0.3,1.3,1.3,1.3h2.7c0.9,0,1.3-0.3,1.3-1.3V14.5C271.3,13.5,270.9,13.2,270,13.2z M293.3,13.2
			H291c-1,0-1.4,0.3-1.8,1.1l-4.2,7.6l-4.2-7.6c-0.5-0.8-0.8-1-1.9-1h-2.1c-1.2,0-1.4,0.3-1.4,1.4v15.2c0,1,0.2,1.3,1.3,1.3h2.2
			c1,0,1.3-0.3,1.3-1.3v-4.2c0-1.5-0.3-3.3-0.9-5.7h0.2c0.5,1.6,0.9,2.6,1.6,3.8l1.6,2.9c0.4,0.8,0.8,0.9,1.6,0.9h1.3
			c0.9,0,1.1-0.2,1.5-0.9l1.7-2.9c0.7-1.2,1.2-2.3,1.7-3.8h0.2c-0.6,2.4-0.9,4.2-0.9,5.7v4.2c0,1,0.3,1.3,1.3,1.3h2.3
			c0.9,0,1.3-0.3,1.3-1.3V14.6C294.7,13.5,294.4,13.2,293.3,13.2z M306.2,12.7c-3.8,0-6.3,1.3-7.5,3.6c-0.5,1-0.2,1.4,0.7,1.8
			l1.9,0.8c0.9,0.4,1.2,0.2,1.8-0.5c0.6-0.8,1.5-1.3,2.9-1.3c1.9,0,2.7,0.9,2.7,2.5v0.8c-0.6,0-1.6-0.1-2.5-0.1
			c-5.7,0-8.1,1.3-8.1,5.6c0,3.7,1.6,5.7,8,5.7c3,0,5.3-0.3,6.6-0.9c1-0.4,1.3-0.8,1.3-2v-8.7C313.9,15.7,312.1,12.7,306.2,12.7z
			 M308.7,27.2c0,0.2-0.1,0.2-0.2,0.2c-0.5,0.1-1.3,0.1-2.8,0.1c-2,0-2.3-0.7-2.3-1.7c0-0.9,0.4-1.6,2.4-1.6c0.9,0,2.3,0.1,2.9,0.1
			V27.2z M331,13.2h-13.3c-0.9,0-1.3,0.3-1.3,1.3v2.2c0,0.9,0.3,1.2,1.3,1.2h4v11.9c0,1,0.3,1.3,1.3,1.3h2.7c1,0,1.3-0.3,1.3-1.3
			V17.9h4c0.9,0,1.3-0.3,1.3-1.2v-2.2C332.3,13.5,331.9,13.2,331,13.2z"/>
	</g>
</g>
<g>
	<g>
		<linearGradient id="SVGID_1_" gradientUnits="userSpaceOnUse" x1="39.6375" y1="61.0444" x2="64.0485" y2="-6.024">
			<stop  offset="0.2606" style="stop-color:#00D6BE"/>
			<stop  offset="1" style="stop-color:#009FFF"/>
		</linearGradient>
		<path class="st0" d="M95.4,8C84.8-2.3,67.9-2.7,56.8,6.9l5.6,5.6c8-7,20.1-6.7,27.7,0.8c7.9,7.8,7.9,20.5,0,28.3
			c-7.9,7.8-20.7,7.8-28.7,0l-3.9-3.9l5.5-5.4l0,0l5.6-5.4l0,0l3.1-3.1c2-2,5.2-2,7.2,0c2,2,2,5.2,0,7.2c-1.5,1.5-3.7,1.9-5.5,1.1
			l-5.3,5.2c4.8,3.8,11.8,3.4,16.3-1.1c4.8-4.9,4.8-12.9,0-17.8c-4.8-4.9-12.6-4.9-17.5,0l-9,8.5l0,0l-5.7,5.4l-5.1-5.1l10.2-10
			l-6-5.9l0,0l-3.3-3.2c-11-10.7-28.8-10.7-39.8,0c-11,10.7-11,28,0,38.7c11,10.7,28.8,10.7,39.8,0l3.8-3.7l3.7,3.6
			c11,10.7,28.8,10.7,39.8,0C106.4,36.1,106.4,18.8,95.4,8z M42.1,41.7c-7.9,7.8-20.7,7.8-28.7,0c-7.9-7.8-7.9-20.4,0-28.2
			c7.9-7.8,20.7-7.8,28.7,0l3.9,3.8l-5.5,5.4l-3.9-4c-4.8-4.9-12.6-4.9-17.5,0c-4.8,4.9-4.8,12.8,0,17.7c4.8,4.9,12.6,4.9,17.5,0
			l0.6-0.6l3.7-3.4l5.3,5.2L42.1,41.7z M35.4,27.6l-3.5,3.5l-0.2,0.2c-2,1.9-5.2,1.9-7.1-0.1c-2-2-2-5.2,0-7.2c2-2,5.2-2,7.2,0
			L35.4,27.6z"/>
	</g>
</g>
</svg>
